<svg width="26" height="26" viewBox="0 0 26 26" fill="none" xmlns="http://www.w3.org/2000/svg">
    <rect x="4" y="4" width="18" height="18" rx="9" fill="black"/>
    <path fill-rule="evenodd" clip-rule="evenodd" d="M20.8951 20.8935C25.2307 16.5579 25.2307 9.52841 20.8951 5.19278L17.7774 8.31049C20.3253 10.9558 20.3147 15.146 17.7307 17.73C15.1468 20.3139 10.9565 20.3246 8.31121 17.7767L5.19437 20.8935C9.52999 25.2291 16.5594 25.2291 20.8951 20.8935Z" fill="url(#paint0_radial_1782_206515)"/>
    <mask id="mask0_1782_206515" style="mask-type:alpha" maskUnits="userSpaceOnUse" x="2" y="2" width="23" height="23">
        <path fill-rule="evenodd" clip-rule="evenodd" d="M5.25233 5.25163C1.47199 9.03198 0.987821 14.8603 3.79983 19.1652L3.79962 19.1654C3.99959 19.483 4.09957 19.6418 4.15723 19.7903C4.29065 20.1341 4.3098 20.4178 4.2238 20.7764C4.18663 20.9313 4.09166 21.14 3.90173 21.5572C3.26783 22.9498 3.13083 23.9853 3.61236 24.4668C4.97129 25.8258 9.32295 23.6774 16.501 16.4993C23.6791 9.32126 25.8275 4.9696 24.4685 3.61067C23.987 3.12918 22.9517 3.26612 21.5593 3.89987L21.5593 3.89988C21.1402 4.0906 20.9307 4.18596 20.7749 4.22317C20.4183 4.30831 20.1364 4.28947 19.7942 4.15761C19.6465 4.10069 19.4889 4.00215 19.1771 3.8064C14.871 0.986287 9.03593 1.46803 5.25233 5.25163ZM14.4493 14.4479C17.0638 11.8334 18.8268 9.35752 17.6141 8.1448C14.9749 5.50561 10.716 5.48559 8.10149 8.10007C5.48701 10.7146 5.50703 14.9735 8.14622 17.6127C9.35894 18.8254 11.8348 17.0623 14.4493 14.4479Z" fill="#FF3377"/>
    </mask>
    <g mask="url(#mask0_1782_206515)">
        <path fill-rule="evenodd" clip-rule="evenodd" d="M5.25233 5.25163C1.47199 9.03198 0.987821 14.8603 3.79983 19.1652L3.79962 19.1654C3.99959 19.483 4.09957 19.6418 4.15723 19.7903C4.29065 20.1341 4.3098 20.4178 4.2238 20.7764C4.18663 20.9313 4.09166 21.14 3.90173 21.5572C3.26783 22.9498 3.13083 23.9853 3.61236 24.4668C4.97129 25.8258 9.32295 23.6774 16.501 16.4993C23.6791 9.32126 25.8275 4.9696 24.4685 3.61067C23.987 3.12918 22.9517 3.26612 21.5593 3.89987L21.5593 3.89988C21.1402 4.0906 20.9307 4.18596 20.7749 4.22317C20.4183 4.30831 20.1364 4.28947 19.7942 4.15761C19.6465 4.10069 19.4889 4.00215 19.1771 3.8064C14.871 0.986287 9.03593 1.46803 5.25233 5.25163ZM14.4493 14.4479C17.0638 11.8334 18.8268 9.35752 17.6141 8.1448C14.9749 5.50561 10.716 5.48559 8.10149 8.10007C5.48701 10.7146 5.50703 14.9735 8.14622 17.6127C9.35894 18.8254 11.8348 17.0623 14.4493 14.4479Z" fill="#FF3377"/>
        <g filter="url(#filter0_f_1782_206515)">
            <path d="M5.48895 18.1334C3.17792 14.5913 3.57585 9.79576 6.68272 6.68531C9.79299 3.57145 14.5901 3.17561 18.1292 5.49778C18.3838 5.65779 18.5129 5.73849 18.6339 5.78517C18.9151 5.89366 19.1468 5.90917 19.4399 5.83911C19.568 5.8085 19.7402 5.73003 20.0846 5.5731C21.2289 5.05165 22.8344 3.93172 23.3978 4.49577C24.2631 5.36208 21.659 9.86594 15.7597 15.772C9.8604 21.6781 5.36169 24.4531 4.49639 23.5868C3.93295 23.0227 5.05168 21.2474 5.57265 20.1016C5.72875 19.7582 5.8068 19.5866 5.83734 19.4591C5.90803 19.164 5.89228 18.9306 5.78263 18.6477C5.73525 18.5255 5.65307 18.3949 5.48873 18.1336L5.48895 18.1334Z" fill="#FFFF00"/>
        </g>
    </g>
    <defs>
        <filter id="filter0_f_1782_206515" x="0.523549" y="0.523061" width="26.5232" height="26.7059" filterUnits="userSpaceOnUse" color-interpolation-filters="sRGB">
            <feFlood flood-opacity="0" result="BackgroundImageFix"/>
            <feBlend mode="normal" in="SourceGraphic" in2="BackgroundImageFix" result="shape"/>
            <feGaussianBlur stdDeviation="1.74337" result="effect1_foregroundBlur_1782_206515"/>
        </filter>
        <radialGradient id="paint0_radial_1782_206515" cx="0" cy="0" r="1" gradientUnits="userSpaceOnUse" gradientTransform="translate(13.0198 13.1852) rotate(45) scale(10.9553 10.9553)">
            <stop offset="0.646153" stop-color="#FFFF00"/>
            <stop offset="1" stop-color="#FF3377"/>
        </radialGradient>
    </defs>
</svg>
