<svg xmlns="http://www.w3.org/2000/svg" width="26" height="26" viewBox="0 0 26 26" fill="none">
<g clip-path="url(#clip0)">
<path d="M0 13C0 5.8203 5.8203 0 13 0V0C20.1797 0 26 5.8203 26 13V13C26 20.1797 20.1797 26 13 26V26C5.8203 26 0 20.1797 0 13V13Z" fill="white"/>
<path fill-rule="evenodd" clip-rule="evenodd" d="M2.23593 26L0.837859 26H0V0H1.77627H19.6952V0.00164883C20.5905 -0.00938626 21.1851 0.0629452 21.6621 0.315598C22.3088 0.658107 22.8144 1.217 23.0907 1.89457C23.4198 2.7014 23.2507 3.76642 22.9125 5.89647L21.5618 14.4032C21.2386 16.4387 21.077 17.4564 20.6046 18.2825C20.2045 18.9821 19.6473 19.5792 18.9768 20.0265C18.1853 20.5547 17.1811 20.7861 15.1728 21.2487L11.54 22.0856L11.5399 22.0856C10.5161 22.3215 10.0041 22.4394 9.63159 22.2949C9.3197 22.174 9.06644 21.9374 8.9245 21.6345C8.75495 21.2727 8.83772 20.7539 9.00326 19.7163L9.48078 16.7232L12.2577 16.0844C13.4628 15.8073 14.0653 15.6687 14.5404 15.3519C14.9427 15.0836 15.2772 14.7255 15.5174 14.3058C15.801 13.8102 15.8982 13.1996 16.0925 11.9784L16.9988 6.28227C17.1638 5.24545 17.2463 4.72704 17.0768 4.36541C16.9348 4.06264 16.6817 3.82621 16.37 3.70524C15.9976 3.56075 15.486 3.67836 14.4629 3.9136L10.8295 4.74893L10.8294 4.74894C10.5784 4.80666 10.343 4.86078 10.1217 4.91232C8.57295 5.27312 7.71737 5.50765 7.02449 5.96959C6.94066 6.02548 6.85859 6.08371 6.77838 6.14419C6.21691 6.56753 5.74626 7.10104 5.39592 7.71315C5.33683 7.8164 5.28259 7.92264 5.23229 8.0335C4.88014 8.80949 4.72072 9.81135 4.43731 11.5924L3.13899 19.7516H3.14309L3.08753 20.1015C2.74933 22.2315 2.58023 23.2966 2.90926 24.1034C3.18557 24.781 3.69125 25.3399 4.33788 25.6824C4.79959 25.9269 5.37153 26.0025 6.2197 25.9971V26L2.23593 26Z" fill="#9EB9FF"/>
<path fill-rule="evenodd" clip-rule="evenodd" d="M23.7641 -5.79837e-06L25.1621 -1.95331e-06L26 -2.02656e-06L26 26L24.2237 26L6.30484 26L6.30484 25.9984C5.40951 26.0094 4.81487 25.9371 4.33788 25.6844C3.69125 25.3419 3.18557 24.783 2.90926 24.1054C2.58022 23.2986 2.74933 22.2336 3.08753 20.1035L4.43821 11.5968C4.7614 9.56133 4.92299 8.54361 5.3954 7.71751C5.7955 7.01787 6.35274 6.42082 7.02315 5.97347C7.81474 5.44526 8.8189 5.21393 10.8272 4.75128L14.46 3.9144L14.4601 3.91439C15.4839 3.67853 15.9959 3.56059 16.3684 3.70508C16.6803 3.82605 16.9336 4.06259 17.0755 4.36551C17.245 4.72734 17.1623 5.24613 16.9967 6.28372L16.5192 9.27685L13.7423 9.91556C12.5372 10.1927 11.9347 10.3313 11.4596 10.6481C11.0573 10.9164 10.7228 11.2745 10.4826 11.6942C10.199 12.1898 10.1018 12.8004 9.90753 14.0216L9.00119 19.7177C8.83621 20.7546 8.75373 21.273 8.92325 21.6346C9.06517 21.9374 9.3183 22.1738 9.63003 22.2948C10.0024 22.4393 10.514 22.3216 11.5371 22.0864L15.1705 21.2511L15.1706 21.2511C15.4216 21.1933 15.657 21.1392 15.8783 21.0877C17.427 20.7269 18.2826 20.4924 18.9755 20.0304C19.0593 19.9745 19.1414 19.9163 19.2216 19.8558C19.7831 19.4325 20.2537 18.899 20.6041 18.2869C20.6632 18.1836 20.7174 18.0774 20.7677 17.9665C21.1199 17.1905 21.2793 16.1886 21.5627 14.4076L22.861 6.24841L22.8569 6.24841L22.9125 5.8985C23.2507 3.76845 23.4198 2.70343 23.0907 1.89659C22.8144 1.21903 22.3088 0.660137 21.6621 0.317627C21.2004 0.0730698 20.6285 -0.00253665 19.7803 0.00287678L19.7803 -1.48281e-06L23.7641 -5.79837e-06Z" fill="#5282FF"/>
</g>
<defs>
<clipPath id="clip0">
<path d="M0 13C0 5.8203 5.8203 0 13 0V0C20.1797 0 26 5.8203 26 13V13C26 20.1797 20.1797 26 13 26V26C5.8203 26 0 20.1797 0 13V13Z" fill="white"/>
</clipPath>
</defs>
</svg>
