<svg width="20" height="20" fill="none" xmlns="http://www.w3.org/2000/svg"><path fill-rule="evenodd" clip-rule="evenodd" d="M9 2.5h2a.5.5 0 01.5.5v.072c0 1.924 2.084 3.127 3.75 2.165l.063-.036a.5.5 0 01.682.183l1 1.732a.5.5 0 01-.183.683l-.062.036c-1.666.962-1.666 3.368 0 4.33l.063.036a.5.5 0 01.183.683l-1 1.732a.5.5 0 01-.684.183l-.062-.035c-1.666-.963-3.75.24-3.75 2.165V17a.5.5 0 01-.5.5H9a.5.5 0 01-.5-.5v-.072c0-1.924-2.083-3.127-3.75-2.165l-.062.036a.5.5 0 01-.683-.183l-1-1.732a.5.5 0 01.183-.683l.062-.036c1.667-.962 1.667-3.368 0-4.33L3.188 7.8a.5.5 0 01-.183-.683l1-1.732a.5.5 0 01.683-.183l.062.036c1.667.962 3.75-.24 3.75-2.165V3a.5.5 0 01.5-.5zM7 3a2 2 0 012-2h2a2 2 0 012 2v.072a1 1 0 001.5.866l.063-.036a2 2 0 012.731.732l1 1.732a2 2 0 01-.732 2.732l-.062.036a1 1 0 000 1.732l.063.036a2 2 0 01.732 2.732l-1 1.732a2 2 0 01-2.733.732l-.062-.035a1 1 0 00-1.5.866V17a2 2 0 01-2 2H9a2 2 0 01-2-2v-.072a1 1 0 00-1.5-.866l-.062.036a2 2 0 01-2.732-.732l-1-1.732a2 2 0 01.732-2.732l.062-.036a1 1 0 000-1.732l-.062-.036a2 2 0 01-.732-2.732l1-1.732a2 2 0 012.732-.732l.062.036A1 1 0 007 3.072V3zm5.101 7a2.1 2.1 0 11-4.2 0 2.1 2.1 0 014.2 0zm1.5 0a3.6 3.6 0 11-7.2 0 3.6 3.6 0 017.2 0z" fill="currentColor"/></svg>
